<?xml version="1.0" standalone="no"?>
<!DOCTYPE svg PUBLIC "-//W3C//DTD SVG 20010904//EN"
 "http://www.w3.org/TR/2001/REC-SVG-20010904/DTD/svg10.dtd">
<svg version="1.0" xmlns="http://www.w3.org/2000/svg"
 width="1024.000000pt" height="1024.000000pt" viewBox="0 0 1024.000000 1024.000000"
 preserveAspectRatio="xMidYMid meet">

<g transform="translate(0.000000,1024.000000) scale(0.100000,-0.100000)"
fill="#000000" stroke="none">
<path d="M4860 8013 c-100 -8 -338 -45 -409 -63 -372 -95 -756 -279 -1021
-489 -131 -103 -402 -377 -487 -491 -112 -151 -191 -276 -255 -404 -157 -312
-252 -643 -280 -970 -14 -168 -5 -588 16 -721 82 -539 291 -1031 609 -1435 84
-107 327 -360 346 -360 9 0 -10 -15 -42 -32 -175 -95 -260 -311 -197 -499 52
-153 168 -252 329 -280 226 -40 594 145 642 323 8 31 14 38 27 33 183 -72 434
-138 652 -172 159 -25 590 -25 769 0 307 43 661 163 954 324 412 226 817 632
1064 1068 166 292 298 695 333 1015 63 585 1 1104 -186 1549 -163 389 -434
746 -770 1014 -215 172 -605 375 -884 460 -239 73 -344 96 -570 122 -115 14
-508 18 -640 8z m643 -239 c583 -64 1207 -372 1594 -788 166 -178 272 -334
393 -581 103 -210 101 -198 43 -213 -70 -18 -246 -107 -336 -169 l-78 -54 -47
34 c-43 31 -79 50 -84 44 -1 -1 -4 -355 -7 -787 l-6 -785 -31 -87 c-34 -94
-85 -189 -136 -255 -18 -23 -104 -118 -190 -210 -161 -173 -293 -332 -478
-578 -58 -77 -132 -167 -165 -200 -33 -33 -68 -71 -77 -85 -17 -25 -18 -25
-10 20 4 25 7 108 7 185 0 133 -1 143 -27 191 -34 64 -105 127 -178 157 l-55
22 -950 5 -950 5 -57 27 c-78 36 -123 72 -170 136 -54 73 -69 112 -83 217
l-13 90 -1 -85 c-1 -102 10 -154 51 -238 41 -87 142 -188 229 -231 93 -46 166
-51 749 -51 l506 0 17 -29 c9 -16 68 -82 131 -148 206 -215 438 -405 601 -490
88 -47 92 -48 176 -48 78 1 91 3 127 29 36 24 120 127 149 180 6 11 19 20 29
21 49 5 247 70 321 107 189 92 382 249 558 453 62 71 145 180 145 189 0 3 23
39 50 80 28 41 50 77 50 80 0 3 27 62 60 132 58 121 107 259 224 619 87 270
146 411 146 349 0 -61 -36 -277 -66 -396 -91 -365 -271 -729 -506 -1025 -227
-285 -438 -463 -778 -656 -129 -72 -405 -178 -579 -222 -222 -55 -360 -70
-646 -69 -275 0 -385 13 -621 74 -645 166 -1176 568 -1532 1157 -107 177 -231
442 -266 568 -9 33 -24 77 -32 99 -16 42 -57 231 -79 371 -41 256 0 812 80
1072 101 330 229 579 435 843 198 255 484 488 767 627 226 110 365 156 668
223 120 27 132 25 54 -9 -211 -90 -310 -256 -279 -471 15 -109 46 -167 129
-241 99 -88 139 -101 311 -103 150 -1 192 9 285 70 97 63 136 112 181 229 51
134 35 275 -48 399 -45 68 -149 148 -230 176 -37 13 -66 26 -63 28 2 2 48 8
102 12 121 10 304 4 486 -16z m-648 -215 c15 -8 42 -31 59 -52 27 -34 31 -47
30 -95 -1 -76 -34 -151 -91 -203 -62 -57 -118 -79 -216 -86 l-84 -6 -25 34
c-64 84 -75 177 -32 269 14 30 35 66 47 78 64 69 230 101 312 61z m-1226
-4664 c121 -57 174 -129 173 -235 -1 -66 -19 -109 -66 -158 -45 -48 -79 -63
-146 -64 -72 -1 -124 28 -167 94 -26 38 -28 50 -28 137 0 87 3 101 27 143 34
57 94 108 128 108 14 0 49 -11 79 -25z"/>
<path d="M4239 6449 c-170 -22 -331 -149 -407 -323 -45 -102 -46 -119 -46
-951 -1 -839 -1 -833 46 -929 44 -87 160 -183 271 -225 58 -21 60 -21 1075
-21 1106 0 1090 0 1209 57 82 39 185 143 224 226 46 99 51 209 47 1040 -4 718
-4 722 -26 782 -41 109 -125 211 -223 268 -76 45 -157 67 -279 77 -141 12
-1799 11 -1891 -1z m1896 -179 c39 -6 94 -22 124 -37 72 -35 201 -160 201
-195 0 -14 10 -47 22 -74 20 -47 21 -65 24 -419 2 -203 0 -532 -4 -730 l-7
-360 -32 -67 c-41 -86 -103 -149 -179 -179 l-59 -24 -1015 0 -1015 0 -46 21
c-64 30 -122 85 -161 153 l-33 56 -3 725 c-2 481 1 748 8 795 26 166 143 298
297 334 54 13 1791 13 1878 1z"/>
<path d="M5998 5384 c-16 -8 -28 -19 -28 -24 0 -14 -23 -13 -37 1 -14 14
-1418 21 -1474 8 -28 -7 -41 -18 -53 -43 -9 -19 -16 -41 -16 -51 0 -32 30 -73
61 -84 22 -8 245 -11 730 -11 l698 0 36 31 35 31 37 -30 c42 -32 91 -47 124
-37 32 10 62 87 54 135 -13 76 -96 113 -167 74z"/>
<path d="M5985 4876 c-28 -23 -32 -24 -54 -9 -20 13 -35 13 -98 4 -96 -14
-1280 -15 -1342 0 -60 13 -77 5 -97 -46 -26 -69 -14 -105 44 -133 l47 -22 703
0 704 0 18 23 c18 21 20 21 52 6 103 -51 145 -53 182 -8 41 48 32 131 -22 192
-24 27 -100 23 -137 -7z"/>
<path d="M5098 4873 c34 -2 90 -2 125 0 34 2 6 3 -63 3 -69 0 -97 -1 -62 -3z"/>
<path d="M3415 5960 c-3 -5 -1 -10 4 -10 6 0 11 5 11 10 0 6 -2 10 -4 10 -3 0
-8 -4 -11 -10z"/>
<path d="M6830 7799 l0 -69 59 0 c33 0 66 -3 75 -6 14 -5 16 5 16 70 l0 76
-75 -1 -75 -1 0 -69z"/>
<path d="M7074 7584 c-5 -38 1 -153 9 -160 1 -1 44 -5 95 -8 l92 -8 0 111 0
111 -94 0 -95 0 -7 -46z"/>
<path d="M27 103 c-25 -4 -27 -8 -27 -54 0 -48 1 -49 30 -49 30 0 30 1 30 55
0 30 -1 54 -2 54 -2 -1 -15 -4 -31 -6z"/>
</g>
</svg>
